# xmcd
#
# Track frame offsets: 
#        150
#        19852
#        34777
#        54412
#        78592
#        95262
#        120507
#        134962
#        155757
#        173567
#        186907
#        211350
#        231292
#        253095
#        268930
#
# Disc length: 3866 seconds
#
# Revision: 3
# Processed by: cddbd v1.5.2PL0 Copyright (c) Steve Scherf et al.
# Submitted via: ExactAudioCopy v1.0b3
#
DISCID=d70f180f
DTITLE=Sissel - My Heart
DYEAR=2004
DGENRE=Vocal
TTITLE0=Wait A While
TTITLE1=Lascia Ch'io Pianga
TTITLE2=Someone Like You
TTITLE3=Tristezze
TTITLE4=Angel Rays
TTITLE5=Mon coeur s'ouvre a ta voix (Samson and_Dalila)
TTITLE6=Pie Jesu
TTITLE7=Oblivion (One Stolen Kiss)
TTITLE8=You Raise Me Up
TTITLE9=O Mio Babbino Caro
TTITLE10=Ave Maria
TTITLE11=Beyond Imagination
TTITLE12=Deborah's Theme
TTITLE13=Romance
TTITLE14=Ave Maria (Another Version)
EXTD=YEAR: 2004
EXTT0=ฐหา๔ฑฉม๚ันึฦ
EXTT1=ฐหา๔ฑฉม๚ันึฦ
EXTT2=ฐหา๔ฑฉม๚ันึฦ
EXTT3=ฐหา๔ฑฉม๚ันึฦ
EXTT4=ฐหา๔ฑฉม๚ันึฦ
EXTT5=ฐหา๔ฑฉม๚ันึฦ
EXTT6=ฐหา๔ฑฉม๚ันึฦ
EXTT7=ฐหา๔ฑฉม๚ันึฦ
EXTT8=ฐหา๔ฑฉม๚ันึฦ
EXTT9=ฐหา๔ฑฉม๚ันึฦ
EXTT10=ฐหา๔ฑฉม๚ันึฦ
EXTT11=ฐหา๔ฑฉม๚ันึฦ
EXTT12=ฐหา๔ฑฉม๚ันึฦ
EXTT13=ฐหา๔ฑฉม๚ันึฦ
EXTT14=ฐหา๔ฑฉม๚ันึฦ
PLAYORDER=
